<svg width="14" height="14" viewBox="0 0 14 14" fill="none" xmlns="http://www.w3.org/2000/svg">
<path fill-rule="evenodd" clip-rule="evenodd" d="M13.0893 2.09056C13.4148 1.76512 13.4148 1.23748 13.0893 0.912046C12.7639 0.58661 12.2363 0.58661 11.9108 0.912046L7.00008 5.82279L2.08934 0.912046C1.7639 0.58661 1.23626 0.58661 0.910826 0.912046C0.585389 1.23748 0.585389 1.76512 0.910826 2.09056L5.82157 7.0013L0.910826 11.912C0.585389 12.2375 0.585389 12.7651 0.910826 13.0906C1.23626 13.416 1.7639 13.416 2.08934 13.0906L7.00008 8.17981L11.9108 13.0906C12.2363 13.416 12.7639 13.416 13.0893 13.0906C13.4148 12.7651 13.4148 12.2375 13.0893 11.912L8.17859 7.0013L13.0893 2.09056Z" fill="black"/>
</svg>
