<svg width="18" height="19" viewBox="0 0 18 19" fill="none" xmlns="http://www.w3.org/2000/svg">
<g clip-path="url(#clip0_977_86514)">
<path d="M3.1735 4.17057H13.9929H3.1735ZM3.1735 4.17057H14.0589V17.0352H3.1735V4.17057ZM13.9929 16.9692H3.1735H13.9929ZM13.9929 4.17057H3.1735L4.09711 2.19141H13.0693L13.9929 4.17057ZM1.19434 16.9692H15.9721H1.19434Z" fill="white"/>
<path d="M1.19434 16.9692H15.9721M3.1735 4.17057H13.9929H3.1735ZM3.1735 4.17057H14.0589V17.0352H3.1735V4.17057ZM13.9929 16.9692H3.1735H13.9929ZM13.9929 4.17057H3.1735L4.09711 2.19141H13.0693L13.9929 4.17057Z" stroke="#333333" stroke-width="0.989583" stroke-linecap="round" stroke-linejoin="round"/>
<path d="M5.61545 6.34852C5.48351 6.34852 5.35156 6.28255 5.35156 6.15061M10.0356 15.5187C10.0356 14.727 9.37587 14.0673 8.5842 14.0673C7.79253 14.0673 7.13281 14.727 7.13281 15.5187V16.9701H10.1016V15.5187H10.0356ZM5.61545 5.88672C5.7474 5.88672 5.87934 6.01866 5.87934 6.15061L5.61545 5.88672ZM5.35156 6.15061C5.35156 6.01866 5.48351 5.88672 5.61545 5.88672L5.35156 6.15061Z" stroke="#333333" stroke-width="0.989583" stroke-linecap="round" stroke-linejoin="round"/>
<path d="M5.61545 9.31901C5.48351 9.31901 5.35156 9.18707 5.35156 9.05512M5.87934 6.15234C5.87934 6.28429 5.7474 6.41623 5.61545 6.41623L5.87934 6.15234ZM5.61545 8.8572C5.7474 8.8572 5.87934 8.98915 5.87934 9.12109L5.61545 8.8572ZM5.35156 9.05512C5.35156 8.92318 5.48351 8.79123 5.61545 8.79123L5.35156 9.05512Z" stroke="#333333" stroke-width="0.989583" stroke-linecap="round" stroke-linejoin="round"/>
<path d="M5.35156 12.0894C5.35156 11.9575 5.48351 11.8255 5.61545 11.8255M5.87934 9.05469C5.87934 9.18663 5.7474 9.31858 5.61545 9.31858L5.87934 9.05469ZM5.61545 11.8255C5.7474 11.8255 5.87934 11.9575 5.87934 12.0894L5.61545 11.8255Z" stroke="#333333" stroke-width="0.989583" stroke-linecap="round" stroke-linejoin="round"/>
<path d="M8.32031 6.15061C8.32031 6.01866 8.45226 5.88672 8.5842 5.88672M5.61545 12.286C5.48351 12.286 5.35156 12.1541 5.35156 12.0221L5.61545 12.286ZM5.87934 12.0881C5.87934 12.2201 5.7474 12.352 5.61545 12.352L5.87934 12.0881ZM8.5842 5.88672C8.71615 5.88672 8.84809 6.01866 8.84809 6.15061L8.5842 5.88672Z" stroke="#333333" stroke-width="0.989583" stroke-linecap="round" stroke-linejoin="round"/>
<path d="M8.5842 9.31858C8.45226 9.31858 8.32031 9.18663 8.32031 9.05469M8.5842 6.34983C8.45226 6.34983 8.32031 6.21788 8.32031 6.08594L8.5842 6.34983ZM8.84809 6.15191C8.84809 6.28385 8.71615 6.4158 8.5842 6.4158L8.84809 6.15191ZM8.5842 8.85677C8.71615 8.85677 8.84809 8.98872 8.84809 9.12066L8.5842 8.85677ZM8.32031 9.05469C8.32031 8.92274 8.45226 8.7908 8.5842 8.7908L8.32031 9.05469Z" stroke="#333333" stroke-width="0.989583" stroke-linecap="round" stroke-linejoin="round"/>
<path d="M8.32031 12.0894C8.32031 11.9575 8.45226 11.8255 8.5842 11.8255M8.84809 9.05469C8.84809 9.18663 8.71615 9.31858 8.5842 9.31858L8.84809 9.05469ZM8.5842 11.8255C8.71615 11.8255 8.84809 11.9575 8.84809 12.0894L8.5842 11.8255Z" stroke="#333333" stroke-width="0.989583" stroke-linecap="round" stroke-linejoin="round"/>
<path d="M11.2891 6.15061C11.2891 6.01866 11.421 5.88672 11.553 5.88672M8.5842 12.286C8.45226 12.286 8.32031 12.1541 8.32031 12.0221L8.5842 12.286ZM8.84809 12.0881C8.84809 12.2201 8.71615 12.352 8.5842 12.352L8.84809 12.0881ZM11.553 5.88672C11.6849 5.88672 11.8168 6.01866 11.8168 6.15061L11.553 5.88672Z" stroke="#333333" stroke-width="0.989583" stroke-linecap="round" stroke-linejoin="round"/>
<path d="M11.553 9.31858C11.421 9.31858 11.2891 9.18663 11.2891 9.05469M11.553 6.34983C11.421 6.34983 11.2891 6.21788 11.2891 6.08594L11.553 6.34983ZM11.8168 6.15191C11.8168 6.28385 11.6849 6.4158 11.553 6.4158L11.8168 6.15191ZM11.553 8.85677C11.6849 8.85677 11.8168 8.98872 11.8168 9.12066L11.553 8.85677ZM11.2891 9.05469C11.2891 8.92274 11.421 8.7908 11.553 8.7908L11.2891 9.05469Z" stroke="#333333" stroke-width="0.989583" stroke-linecap="round" stroke-linejoin="round"/>
<path d="M11.2891 12.0894C11.2891 11.9575 11.421 11.8255 11.553 11.8255M11.8168 9.05469C11.8168 9.18663 11.6849 9.31858 11.553 9.31858L11.8168 9.05469ZM11.553 11.8255C11.6849 11.8255 11.8168 11.9575 11.8168 12.0894L11.553 11.8255Z" stroke="#333333" stroke-width="0.989583" stroke-linecap="round" stroke-linejoin="round"/>
<path d="M11.8168 12.0894C11.8168 12.2214 11.6849 12.3533 11.553 12.3533M11.553 12.2873C11.421 12.2873 11.2891 12.1554 11.2891 12.0234L11.553 12.2873Z" stroke="#333333" stroke-width="0.989583" stroke-linecap="round" stroke-linejoin="round"/>
</g>
<defs>
<clipPath id="clip0_977_86514">
<rect width="15.6667" height="15.6667" fill="white" transform="translate(0.666504 1.66797)"/>
</clipPath>
</defs>
</svg>
