<svg width="15" height="18" viewBox="0 0 15 18" fill="none" xmlns="http://www.w3.org/2000/svg">
<g clip-path="url(#clip0_977_86500)">
<path d="M3.90999 4.00911H13.5906H3.90999ZM3.90999 4.00911H13.6496V15.5195H3.90999V4.00911ZM13.5906 15.4605H3.90999H13.5906ZM13.5906 4.00911H3.90999L4.73638 2.23828H12.7642L13.5906 4.00911ZM2.13916 15.4605H15.3614H2.13916Z" fill="white"/>
<path d="M2.13916 15.4605H15.3614M3.90999 4.00911H13.5906H3.90999ZM3.90999 4.00911H13.6496V15.5195H3.90999V4.00911ZM13.5906 15.4605H3.90999H13.5906ZM13.5906 4.00911H3.90999L4.73638 2.23828H12.7642L13.5906 4.00911Z" stroke="#A2A9B0" stroke-width="0.885417" stroke-linecap="round" stroke-linejoin="round"/>
<path d="M6.09402 5.96007C5.97597 5.96007 5.85791 5.90104 5.85791 5.78299M10.0489 14.1649C10.0489 13.4566 9.4586 12.8663 8.75027 12.8663C8.04194 12.8663 7.45166 13.4566 7.45166 14.1649V15.4635H10.1079V14.1649H10.0489ZM6.09402 5.54688C6.21208 5.54688 6.33013 5.66493 6.33013 5.78299L6.09402 5.54688ZM5.85791 5.78299C5.85791 5.66493 5.97597 5.54688 6.09402 5.54688L5.85791 5.78299Z" stroke="#A2A9B0" stroke-width="0.885417" stroke-linecap="round" stroke-linejoin="round"/>
<path d="M6.09402 8.61458C5.97597 8.61458 5.85791 8.49653 5.85791 8.37847M6.33013 5.78125C6.33013 5.89931 6.21208 6.01736 6.09402 6.01736L6.33013 5.78125ZM6.09402 8.20139C6.21208 8.20139 6.33013 8.31944 6.33013 8.4375L6.09402 8.20139ZM5.85791 8.37847C5.85791 8.26042 5.97597 8.14236 6.09402 8.14236L5.85791 8.37847Z" stroke="#A2A9B0" stroke-width="0.885417" stroke-linecap="round" stroke-linejoin="round"/>
<path d="M5.85791 11.0942C5.85791 10.9761 5.97597 10.8581 6.09402 10.8581M6.33013 8.37891C6.33013 8.49696 6.21208 8.61502 6.09402 8.61502L6.33013 8.37891ZM6.09402 10.8581C6.21208 10.8581 6.33013 10.9761 6.33013 11.0942L6.09402 10.8581Z" stroke="#A2A9B0" stroke-width="0.885417" stroke-linecap="round" stroke-linejoin="round"/>
<path d="M8.51416 5.78299C8.51416 5.66493 8.63222 5.54688 8.75027 5.54688M6.09402 11.2726C5.97597 11.2726 5.85791 11.1545 5.85791 11.0365L6.09402 11.2726ZM6.33013 11.0955C6.33013 11.2135 6.21208 11.3316 6.09402 11.3316L6.33013 11.0955ZM8.75027 5.54688C8.86833 5.54688 8.98638 5.66493 8.98638 5.78299L8.75027 5.54688Z" stroke="#A2A9B0" stroke-width="0.885417" stroke-linecap="round" stroke-linejoin="round"/>
<path d="M8.75027 8.61502C8.63222 8.61502 8.51416 8.49696 8.51416 8.37891M8.75027 5.95877C8.63222 5.95877 8.51416 5.84071 8.51416 5.72266L8.75027 5.95877ZM8.98638 5.78168C8.98638 5.89974 8.86833 6.0178 8.75027 6.0178L8.98638 5.78168ZM8.75027 8.20182C8.86833 8.20182 8.98638 8.31988 8.98638 8.43793L8.75027 8.20182ZM8.51416 8.37891C8.51416 8.26085 8.63222 8.1428 8.75027 8.1428L8.51416 8.37891Z" stroke="#A2A9B0" stroke-width="0.885417" stroke-linecap="round" stroke-linejoin="round"/>
<path d="M8.51416 11.0942C8.51416 10.9761 8.63222 10.8581 8.75027 10.8581M8.98638 8.37891C8.98638 8.49696 8.86833 8.61502 8.75027 8.61502L8.98638 8.37891ZM8.75027 10.8581C8.86833 10.8581 8.98638 10.9761 8.98638 11.0942L8.75027 10.8581Z" stroke="#A2A9B0" stroke-width="0.885417" stroke-linecap="round" stroke-linejoin="round"/>
<path d="M11.1704 5.78299C11.1704 5.66493 11.2885 5.54688 11.4065 5.54688M8.75027 11.2726C8.63222 11.2726 8.51416 11.1545 8.51416 11.0365L8.75027 11.2726ZM8.98638 11.0955C8.98638 11.2135 8.86833 11.3316 8.75027 11.3316L8.98638 11.0955ZM11.4065 5.54688C11.5246 5.54688 11.6426 5.66493 11.6426 5.78299L11.4065 5.54688Z" stroke="#A2A9B0" stroke-width="0.885417" stroke-linecap="round" stroke-linejoin="round"/>
<path d="M11.4065 8.61502C11.2885 8.61502 11.1704 8.49696 11.1704 8.37891M11.4065 5.95877C11.2885 5.95877 11.1704 5.84071 11.1704 5.72266L11.4065 5.95877ZM11.6426 5.78168C11.6426 5.89974 11.5246 6.0178 11.4065 6.0178L11.6426 5.78168ZM11.4065 8.20182C11.5246 8.20182 11.6426 8.31988 11.6426 8.43793L11.4065 8.20182ZM11.1704 8.37891C11.1704 8.26085 11.2885 8.1428 11.4065 8.1428L11.1704 8.37891Z" stroke="#A2A9B0" stroke-width="0.885417" stroke-linecap="round" stroke-linejoin="round"/>
<path d="M11.1704 11.0942C11.1704 10.9761 11.2885 10.8581 11.4065 10.8581M11.6426 8.37891C11.6426 8.49696 11.5246 8.61502 11.4065 8.61502L11.6426 8.37891ZM11.4065 10.8581C11.5246 10.8581 11.6426 10.9761 11.6426 11.0942L11.4065 10.8581Z" stroke="#A2A9B0" stroke-width="0.885417" stroke-linecap="round" stroke-linejoin="round"/>
<path d="M11.6426 11.0942C11.6426 11.2122 11.5246 11.3303 11.4065 11.3303M11.4065 11.2713C11.2885 11.2713 11.1704 11.1532 11.1704 11.0352L11.4065 11.2713Z" stroke="#A2A9B0" stroke-width="0.885417" stroke-linecap="round" stroke-linejoin="round"/>
</g>
<defs>
<clipPath id="clip0_977_86500">
<rect width="13.6667" height="13.6667" fill="white" transform="translate(1.6665 1.76953)"/>
</clipPath>
</defs>
</svg>
