<svg width="20" height="20" viewBox="0 0 20 20" fill="none" xmlns="http://www.w3.org/2000/svg">
<path d="M9.83594 18.4297C14.5821 18.4297 18.4297 14.5821 18.4297 9.83594C18.4297 5.08974 14.5821 1.24219 9.83594 1.24219C5.08974 1.24219 1.24219 5.08974 1.24219 9.83594C1.24219 14.5821 5.08974 18.4297 9.83594 18.4297Z" stroke="black" stroke-width="1.14583" stroke-linecap="round" stroke-linejoin="round"/>
<path d="M8.21606 18.2773C7.01675 16.5968 6.20703 13.4419 6.20703 9.87457C6.20703 6.3072 7.01675 3.07595 8.21606 1.43359" stroke="black" stroke-width="1.14583" stroke-linecap="round" stroke-linejoin="round"/>
<path d="M11.4531 18.2773C12.6524 16.5968 13.4622 13.4419 13.4622 9.87457C13.4622 6.3072 12.6524 3.07595 11.4531 1.43359" stroke="black" stroke-width="1.14583" stroke-linecap="round" stroke-linejoin="round"/>
<path d="M1.24219 9.83594H18.4297" stroke="black" stroke-width="1.14583" stroke-linecap="round" stroke-linejoin="round"/>
<path d="M2.23438 13.8477H17.4358" stroke="black" stroke-width="1.14583" stroke-linecap="round" stroke-linejoin="round"/>
<path d="M2.23438 5.82422H17.4358" stroke="black" stroke-width="1.14583" stroke-linecap="round" stroke-linejoin="round"/>
</svg>
