<svg width="18" height="18" viewBox="0 0 18 18" fill="none" xmlns="http://www.w3.org/2000/svg">
<path d="M3.7915 6.39581V4.31248C3.7915 4.03621 3.90125 3.77126 4.0966 3.57591C4.29195 3.38056 4.5569 3.27081 4.83317 3.27081C5.10944 3.27081 5.37439 3.38056 5.56974 3.57591C5.76509 3.77126 5.87484 4.03621 5.87484 4.31248V6.39581" stroke="#333333" stroke-width="1.04167" stroke-linecap="round" stroke-linejoin="round"/>
<path d="M3.7915 5.35419H5.87484" stroke="#333333" stroke-width="1.04167" stroke-linecap="round" stroke-linejoin="round"/>
<path d="M12.1249 7.95831V8.99998" stroke="#333333" stroke-width="1.04167" stroke-linecap="round" stroke-linejoin="round"/>
<path d="M10.0415 9H14.2082" stroke="#333333" stroke-width="1.04167" stroke-linecap="round" stroke-linejoin="round"/>
<path d="M13.1665 9C13.1665 9 12.1248 12.125 10.0415 12.125" stroke="#333333" stroke-width="1.04167" stroke-linecap="round" stroke-linejoin="round"/>
<path d="M12.1249 10.9215C12.3572 11.2679 12.6657 11.5565 13.0268 11.7651C13.388 11.9737 13.7921 12.0968 14.2082 12.125" stroke="#333333" stroke-width="1.04167" stroke-linecap="round" stroke-linejoin="round"/>
<path d="M8.47904 13.6875C8.20278 13.6875 7.93783 13.5777 7.74247 13.3824C7.54712 13.187 7.43738 12.9221 7.43738 12.6458V7.43748C7.43738 7.16121 7.54712 6.89626 7.74247 6.70091C7.93783 6.50556 8.20278 6.39581 8.47904 6.39581H15.7707C16.047 6.39581 16.3119 6.50556 16.5073 6.70091C16.7026 6.89626 16.8124 7.16121 16.8124 7.43748V12.6458C16.8124 12.9221 16.7026 13.187 16.5073 13.3824C16.3119 13.5777 16.047 13.6875 15.7707 13.6875H14.729V16.8125L11.604 13.6875H8.47904Z" stroke="#333333" stroke-width="1.04167" stroke-linecap="round" stroke-linejoin="round"/>
<path d="M5.35404 9.52083L3.27071 11.6042V8.47917H2.22904C1.95278 8.47917 1.68783 8.36942 1.49248 8.17407C1.29712 7.97872 1.18738 7.71377 1.18738 7.4375V2.22917C1.18738 1.9529 1.29712 1.68795 1.49248 1.4926C1.68783 1.29725 1.95278 1.1875 2.22904 1.1875H9.52071C9.79698 1.1875 10.0619 1.29725 10.2573 1.4926C10.4526 1.68795 10.5624 1.9529 10.5624 2.22917V4.3125" stroke="#333333" stroke-width="1.04167" stroke-linecap="round" stroke-linejoin="round"/>
</svg>
